<svg width="20" height="20" viewBox="0 0 20 20" fill="none" xmlns="http://www.w3.org/2000/svg">
<path d="M3.81603 0C3.46764 0 3.13351 0.1384 2.88715 0.384754C2.6408 0.631108 2.5024 0.965236 2.5024 1.31363C2.5024 1.66203 2.6408 1.99616 2.88715 2.24251C3.13351 2.48887 3.46764 2.62727 3.81603 2.62727H15.5161L0.418101 17.7253C0.289037 17.8456 0.185519 17.9906 0.113721 18.1517C0.0419233 18.3129 0.00331649 18.4868 0.000204436 18.6632C-0.00290762 18.8396 0.0295389 19.0148 0.0956077 19.1783C0.161677 19.3419 0.260014 19.4905 0.384755 19.6152C0.509495 19.74 0.658083 19.8383 0.821653 19.9044C0.985224 19.9705 1.16043 20.0029 1.33681 19.9998C1.51319 19.9967 1.68714 19.9581 1.84828 19.8863C2.00941 19.8145 2.15444 19.711 2.2747 19.5819L17.3727 4.48387V16.184C17.3727 16.5324 17.5111 16.8665 17.7575 17.1128C18.0038 17.3592 18.338 17.4976 18.6864 17.4976C19.0348 17.4976 19.3689 17.3592 19.6152 17.1128C19.8616 16.8665 20 16.5324 20 16.184V1.31363C19.9991 1.13902 19.9633 0.966341 19.8949 0.805695C19.7996 0.581752 19.6447 0.388232 19.447 0.24618C19.2494 0.104128 19.0166 0.0189825 18.7739 0H3.81603Z" fill="black" fill-opacity="0.75"/>
</svg>
