<svg width="10" height="18" viewBox="0 0 10 18" fill="none" xmlns="http://www.w3.org/2000/svg">
<path d="M1.50002 17.5C1.2986 17.4933 1.10069 17.4454 0.918421 17.3594C0.736148 17.2735 0.573357 17.1512 0.440023 17C0.159122 16.7188 0.00134277 16.3376 0.00134277 15.9401C0.00134277 15.5425 0.159122 15.1613 0.440023 14.88L6.44002 8.88005L0.440023 2.88005C0.321375 2.59203 0.29534 2.27421 0.365532 1.97072C0.435724 1.66723 0.598661 1.39311 0.831724 1.18644C1.06479 0.979757 1.35641 0.850765 1.66612 0.817365C1.97583 0.783965 2.28825 0.847814 2.56002 1.00005L9.56002 8.00005C9.84092 8.2813 9.9987 8.66255 9.9987 9.06005C9.9987 9.45755 9.84092 9.8388 9.56002 10.1201L2.56002 17C2.42669 17.1512 2.2639 17.2735 2.08162 17.3594C1.89935 17.4454 1.70144 17.4933 1.50002 17.5Z" fill="black" fill-opacity="0.75"/>
</svg>
