<svg width="31" height="32" viewBox="0 0 31 32" fill="none" xmlns="http://www.w3.org/2000/svg">
<path d="M18.9444 0L15.5 6.913L11.1944 2.59194V8.64039L2.58333 6.913L9.47222 13.826L0 19.0099H10.3333L5.16667 29.3794L15.5 22.4664L24.9722 31.1076L22.3889 19.0099H31L24.1111 13.8251L31 6.04844L20.6667 8.64039L18.9444 0Z" fill="#BB1A34"/>
<path d="M19.7315 11.129L21.3332 10.7269L25.8333 9.59796L22.9219 12.884L21.7861 14.167L23.1553 15.196L25.674 17.0922H20.578L20.9853 19.0021L22.3208 25.2538L17.2877 20.6624L16.3783 19.8323L15.3553 20.5168L10.8431 23.5359L12.9149 19.3785L14.0533 17.0922H8.23566L11.4726 15.3192L13.3197 14.31L11.8325 12.8159L9.2113 10.187L11.9849 10.7432L13.8673 11.1213V7.47962L15.1159 8.73254L16.6608 10.2817L17.6364 8.32179L18.7326 6.12079" fill="#FCAB40"/>
<path d="M18.5242 12.3147L19.1847 12.1485L21.043 11.6827L19.8409 13.0398L19.3715 13.5694L19.9364 13.9939L20.9767 14.7767H18.873L19.0409 15.5654L19.5929 18.1462L17.515 16.2509L17.1387 15.9082L16.7167 16.1906L14.8542 17.4375L15.7092 15.7204L16.1794 14.7767H13.7778L15.1151 14.0447L15.8772 13.6279L15.2632 13.0114L14.1808 11.9255L15.3252 12.1554L16.1028 12.3113V10.8087L16.6186 11.3253L17.2558 11.9651L17.6588 11.1565L18.1109 10.2472" fill="#F5F8FA"/>
</svg>
