<svg width="26" height="24" viewBox="0 0 26 24" fill="none" xmlns="http://www.w3.org/2000/svg">
<path d="M9.65756 24C9.21677 24 8.78588 23.872 8.41938 23.6323C8.05288 23.3926 7.76722 23.0518 7.59854 22.6531C7.42986 22.2545 7.38572 21.8158 7.47171 21.3925C7.55771 20.9693 7.76997 20.5805 8.08165 20.2754C8.39334 19.9703 8.79045 19.7625 9.22277 19.6783C9.65509 19.5941 10.1032 19.6373 10.5104 19.8024C10.9177 19.9676 11.2657 20.2472 11.5106 20.606C11.7555 20.9648 11.8862 21.3867 11.8862 21.8182C11.8862 22.3968 11.6514 22.9518 11.2335 23.361C10.8155 23.7701 10.2486 24 9.65756 24ZM19.3151 24C18.8743 24 18.4434 23.872 18.0769 23.6323C17.7104 23.3926 17.4248 23.0518 17.2561 22.6531C17.0874 22.2545 17.0433 21.8158 17.1293 21.3925C17.2153 20.9693 17.4275 20.5805 17.7392 20.2754C18.0509 19.9703 18.448 19.7625 18.8803 19.6783C19.3126 19.5941 19.7608 19.6373 20.168 19.8024C20.5752 19.9676 20.9233 20.2472 21.1682 20.606C21.4131 20.9648 21.5438 21.3867 21.5438 21.8182C21.5438 22.3968 21.309 22.9518 20.891 23.361C20.4731 23.7701 19.9062 24 19.3151 24ZM21.9152 18.1818H7.05745C6.79584 18.1795 6.54319 18.0882 6.34266 17.9238C6.14212 17.7593 6.00615 17.5317 5.95797 17.28L3.14985 2.18182H1.11433C0.818794 2.18182 0.535359 2.06688 0.326381 1.8623C0.117403 1.65771 0 1.38024 0 1.09091C0 0.801582 0.117403 0.524105 0.326381 0.31952C0.535359 0.114935 0.818794 0 1.11433 0H4.08589C4.34749 0.00235897 4.60015 0.0935711 4.80068 0.258054C5.00121 0.422537 5.13718 0.650083 5.18537 0.901818L5.82425 4.36364H24.8868C25.056 4.36416 25.2229 4.40242 25.3748 4.4755C25.5267 4.54859 25.6596 4.65459 25.7634 4.78545C25.8659 4.9161 25.9376 5.06726 25.9736 5.22817C26.0095 5.38908 26.0088 5.55577 25.9714 5.71636L22.9998 17.3527C22.9376 17.5886 22.7976 17.7978 22.6014 17.9477C22.4053 18.0976 22.1641 18.1799 21.9152 18.1818ZM7.99349 16H21.0386L23.401 6.54545H6.22541L7.99349 16Z" fill="black" fill-opacity="0.75"/>
</svg>
