<svg width="6" height="10" viewBox="0 0 6 10" fill="none" xmlns="http://www.w3.org/2000/svg">
<path d="M1.24999 9.24997C1.34853 9.25043 1.44617 9.23121 1.53718 9.19343C1.62819 9.15566 1.71074 9.10008 1.77999 9.02997L5.27999 5.52997C5.42044 5.38934 5.49933 5.19872 5.49933 4.99997C5.49933 4.80122 5.42044 4.61059 5.27999 4.46997L1.77999 0.999969C1.63903 0.908578 1.47147 0.867157 1.30417 0.882345C1.13687 0.897532 0.979505 0.968449 0.857308 1.08373C0.735112 1.19901 0.655157 1.35197 0.630258 1.51811C0.605358 1.68425 0.636957 1.85393 0.719989 1.99997L3.71999 4.99997L0.719989 7.99997C0.579538 8.14059 0.500648 8.33122 0.500648 8.52997C0.500648 8.72872 0.579538 8.91934 0.719989 9.05997C0.86472 9.19066 1.05519 9.25894 1.24999 9.24997Z" fill="black" fill-opacity="0.5"/>
</svg>
