<svg width="6" height="10" viewBox="0 0 6 10" fill="none" xmlns="http://www.w3.org/2000/svg">
<path d="M4.75001 9.24997C4.65147 9.25043 4.55383 9.23121 4.46282 9.19343C4.37181 9.15566 4.28926 9.10008 4.22001 9.02997L0.720012 5.52997C0.579561 5.38934 0.500671 5.19872 0.500671 4.99997C0.500671 4.80122 0.579561 4.61059 0.720012 4.46997L4.22001 0.999969C4.36097 0.908578 4.52853 0.867157 4.69583 0.882345C4.86313 0.897532 5.0205 0.968449 5.14269 1.08373C5.26489 1.19901 5.34484 1.35197 5.36974 1.51811C5.39464 1.68425 5.36304 1.85393 5.28001 1.99997L2.28001 4.99997L5.28001 7.99997C5.42046 8.14059 5.49935 8.33122 5.49935 8.52997C5.49935 8.72872 5.42046 8.91934 5.28001 9.05997C5.13528 9.19066 4.94481 9.25894 4.75001 9.24997Z" fill="black" fill-opacity="0.5"/>
</svg>
