<svg width="489" height="132" viewBox="0 0 489 132" fill="none" xmlns="http://www.w3.org/2000/svg">
<path d="M180.398 38.8646L191.856 63.1777L203.386 38.8646H214.2L196.869 71.9147V91H186.879V71.9147L169.512 38.8646H180.398ZM214.665 72.0221V71.2702C214.665 68.4295 215.071 65.8155 215.883 63.4284C216.694 61.0174 217.876 58.9286 219.428 57.1621C220.979 55.3956 222.877 54.023 225.121 53.0443C227.365 52.0417 229.919 51.5404 232.784 51.5404C235.696 51.5404 238.274 52.0417 240.518 53.0443C242.786 54.023 244.696 55.3956 246.247 57.1621C247.799 58.9286 248.981 61.0174 249.792 63.4284C250.604 65.8155 251.01 68.4295 251.01 71.2702V72.0221C251.01 74.839 250.604 77.4529 249.792 79.8639C248.981 82.2511 247.799 84.3398 246.247 86.1302C244.696 87.8967 242.798 89.2693 240.554 90.248C238.31 91.2268 235.744 91.7161 232.855 91.7161C229.991 91.7161 227.425 91.2268 225.157 90.248C222.889 89.2693 220.979 87.8967 219.428 86.1302C217.876 84.3398 216.694 82.2511 215.883 79.8639C215.071 77.4529 214.665 74.839 214.665 72.0221ZM224.118 71.2702V72.0221C224.118 73.717 224.286 75.3045 224.62 76.7845C224.954 78.2645 225.467 79.5655 226.159 80.6875C226.852 81.8095 227.747 82.6927 228.845 83.3372C229.967 83.9579 231.304 84.2682 232.855 84.2682C234.383 84.2682 235.696 83.9579 236.794 83.3372C237.892 82.6927 238.788 81.8095 239.48 80.6875C240.196 79.5655 240.721 78.2645 241.055 76.7845C241.39 75.3045 241.557 73.717 241.557 72.0221V71.2702C241.557 69.5992 241.39 68.0356 241.055 66.5794C240.721 65.0994 240.196 63.7984 239.48 62.6764C238.788 61.5306 237.88 60.6354 236.758 59.9909C235.66 59.3225 234.335 58.9883 232.784 58.9883C231.256 58.9883 229.943 59.3225 228.845 59.9909C227.747 60.6354 226.852 61.5306 226.159 62.6764C225.467 63.7984 224.954 65.0994 224.62 66.5794C224.286 68.0356 224.118 69.5992 224.118 71.2702ZM280.945 81.7975V52.2565H290.469V91H281.518L280.945 81.7975ZM282.162 73.7767L285.098 73.7051C285.098 76.3071 284.812 78.7062 284.239 80.9023C283.666 83.0985 282.771 85.0082 281.553 86.6315C280.36 88.2309 278.844 89.4842 277.006 90.3913C275.168 91.2745 272.995 91.7161 270.489 91.7161C268.579 91.7161 266.837 91.4536 265.261 90.9284C263.686 90.3793 262.325 89.5319 261.179 88.3861C260.057 87.2164 259.186 85.7244 258.565 83.9102C257.944 82.072 257.634 79.8639 257.634 77.2858V52.2565H267.087V77.3574C267.087 78.6465 267.23 79.7207 267.517 80.5801C267.827 81.4395 268.245 82.1437 268.77 82.6927C269.319 83.2179 269.952 83.5998 270.668 83.8385C271.408 84.0534 272.196 84.1608 273.031 84.1608C275.323 84.1608 277.125 83.7072 278.438 82.8001C279.775 81.8691 280.73 80.6278 281.303 79.0762C281.876 77.5007 282.162 75.7342 282.162 73.7767ZM308.301 60.1699V91H298.848V52.2565H307.8L308.301 60.1699ZM320.082 52.0059L319.939 60.8145C319.414 60.719 318.817 60.6474 318.148 60.5996C317.504 60.5519 316.895 60.528 316.322 60.528C314.866 60.528 313.589 60.7309 312.491 61.1367C311.393 61.5187 310.474 62.0796 309.734 62.8197C309.018 63.5597 308.469 64.4668 308.087 65.541C307.705 66.5914 307.49 67.7849 307.442 69.1217L305.401 68.8711C305.401 66.4123 305.652 64.1326 306.153 62.0319C306.654 59.9312 307.382 58.0931 308.337 56.5176C309.292 54.9421 310.486 53.7246 311.918 52.8652C313.374 51.982 315.045 51.5404 316.931 51.5404C317.456 51.5404 318.017 51.5881 318.614 51.6836C319.235 51.7552 319.724 51.8626 320.082 52.0059ZM345.398 82.7643V64.8965C345.398 63.5835 345.171 62.4497 344.717 61.4948C344.264 60.5399 343.572 59.7999 342.641 59.2747C341.71 58.7496 340.528 58.487 339.096 58.487C337.831 58.487 336.72 58.7018 335.766 59.1315C334.835 59.5612 334.118 60.1699 333.617 60.9577C333.116 61.7216 332.865 62.6048 332.865 63.6074H323.376C323.376 62.008 323.758 60.4922 324.522 59.0599C325.286 57.6037 326.372 56.3147 327.781 55.1927C329.213 54.0469 330.92 53.1517 332.901 52.5072C334.906 51.8626 337.15 51.5404 339.633 51.5404C342.569 51.5404 345.183 52.0417 347.475 53.0443C349.79 54.023 351.604 55.503 352.917 57.4844C354.254 59.4657 354.923 61.9603 354.923 64.9681V81.8691C354.923 83.8027 355.042 85.4618 355.281 86.8464C355.543 88.207 355.925 89.3887 356.426 90.3913V91H346.794C346.341 90.0213 345.995 88.7799 345.756 87.276C345.517 85.7483 345.398 84.2444 345.398 82.7643ZM346.723 67.403L346.794 73.0247H340.814C339.334 73.0247 338.033 73.1799 336.911 73.4902C335.789 73.7767 334.87 74.2064 334.154 74.7793C333.438 75.3283 332.901 75.9967 332.543 76.7845C332.185 77.5484 332.006 78.4197 332.006 79.3984C332.006 80.3533 332.221 81.2127 332.65 81.9766C333.104 82.7405 333.748 83.3492 334.584 83.8027C335.443 84.2324 336.446 84.4473 337.592 84.4473C339.263 84.4473 340.719 84.1131 341.96 83.4447C343.202 82.7524 344.168 81.9169 344.861 80.9382C345.553 79.9594 345.923 79.0284 345.971 78.1452L348.692 82.2272C348.358 83.2059 347.857 84.2444 347.188 85.3424C346.52 86.4405 345.66 87.467 344.61 88.4219C343.56 89.3767 342.294 90.1645 340.814 90.7852C339.334 91.4058 337.616 91.7161 335.658 91.7161C333.152 91.7161 330.908 91.2148 328.926 90.2122C326.945 89.2096 325.382 87.837 324.236 86.0944C323.09 84.3518 322.517 82.3704 322.517 80.1504C322.517 78.0974 322.899 76.2832 323.663 74.7077C324.427 73.1322 325.561 71.8073 327.064 70.7331C328.568 69.635 330.43 68.8114 332.65 68.2624C334.894 67.6895 337.46 67.403 340.349 67.403H346.723ZM381.778 52.2565V59.0599H359.577V52.2565H381.778ZM365.521 42.7318H375.01V79.8281C375.01 80.974 375.166 81.8572 375.476 82.4779C375.786 83.0985 376.252 83.5163 376.872 83.7311C377.493 83.946 378.233 84.0534 379.092 84.0534C379.713 84.0534 380.286 84.0176 380.811 83.946C381.336 83.8743 381.778 83.8027 382.136 83.7311L382.172 90.821C381.384 91.0836 380.489 91.2984 379.486 91.4655C378.508 91.6326 377.398 91.7161 376.156 91.7161C374.032 91.7161 372.17 91.3581 370.57 90.6419C368.971 89.9019 367.73 88.7203 366.846 87.097C365.963 85.4499 365.521 83.2776 365.521 80.5801V42.7318ZM406.413 52.2565V59.0599H384.213V52.2565H406.413ZM390.157 42.7318H399.646V79.8281C399.646 80.974 399.801 81.8572 400.111 82.4779C400.422 83.0985 400.887 83.5163 401.508 83.7311C402.128 83.946 402.868 84.0534 403.728 84.0534C404.349 84.0534 404.921 84.0176 405.447 83.946C405.972 83.8743 406.413 83.8027 406.771 83.7311L406.807 90.821C406.02 91.0836 405.124 91.2984 404.122 91.4655C403.143 91.6326 402.033 91.7161 400.792 91.7161C398.667 91.7161 396.805 91.3581 395.206 90.6419C393.606 89.9019 392.365 88.7203 391.482 87.097C390.599 85.4499 390.157 83.2776 390.157 80.5801V42.7318ZM434.057 82.7643V64.8965C434.057 63.5835 433.83 62.4497 433.376 61.4948C432.923 60.5399 432.23 59.7999 431.299 59.2747C430.368 58.7496 429.187 58.487 427.755 58.487C426.489 58.487 425.379 58.7018 424.424 59.1315C423.493 59.5612 422.777 60.1699 422.276 60.9577C421.775 61.7216 421.524 62.6048 421.524 63.6074H412.035C412.035 62.008 412.417 60.4922 413.181 59.0599C413.945 57.6037 415.031 56.3147 416.439 55.1927C417.872 54.0469 419.579 53.1517 421.56 52.5072C423.565 51.8626 425.809 51.5404 428.292 51.5404C431.228 51.5404 433.842 52.0417 436.133 53.0443C438.449 54.023 440.263 55.503 441.576 57.4844C442.913 59.4657 443.581 61.9603 443.581 64.9681V81.8691C443.581 83.8027 443.701 85.4618 443.939 86.8464C444.202 88.207 444.584 89.3887 445.085 90.3913V91H435.453C435 90.0213 434.653 88.7799 434.415 87.276C434.176 85.7483 434.057 84.2444 434.057 82.7643ZM435.382 67.403L435.453 73.0247H429.473C427.993 73.0247 426.692 73.1799 425.57 73.4902C424.448 73.7767 423.529 74.2064 422.813 74.7793C422.097 75.3283 421.56 75.9967 421.202 76.7845C420.844 77.5484 420.665 78.4197 420.665 79.3984C420.665 80.3533 420.88 81.2127 421.309 81.9766C421.763 82.7405 422.407 83.3492 423.243 83.8027C424.102 84.2324 425.105 84.4473 426.251 84.4473C427.922 84.4473 429.378 84.1131 430.619 83.4447C431.86 82.7524 432.827 81.9169 433.52 80.9382C434.212 79.9594 434.582 79.0284 434.63 78.1452L437.351 82.2272C437.017 83.2059 436.515 84.2444 435.847 85.3424C435.179 86.4405 434.319 87.467 433.269 88.4219C432.219 89.3767 430.953 90.1645 429.473 90.7852C427.993 91.4058 426.275 91.7161 424.317 91.7161C421.811 91.7161 419.567 91.2148 417.585 90.2122C415.604 89.2096 414.04 87.837 412.895 86.0944C411.749 84.3518 411.176 82.3704 411.176 80.1504C411.176 78.0974 411.558 76.2832 412.322 74.7077C413.085 73.1322 414.219 71.8073 415.723 70.7331C417.227 69.635 419.089 68.8114 421.309 68.2624C423.553 67.6895 426.119 67.403 429.008 67.403H435.382ZM461.378 60.528V91H451.924V52.2565H460.805L461.378 60.528ZM459.874 70.2318H457.081C457.105 67.4149 457.487 64.8607 458.227 62.569C458.967 60.2773 460.005 58.3079 461.342 56.6608C462.702 55.0137 464.314 53.7485 466.176 52.8652C468.038 51.982 470.115 51.5404 472.406 51.5404C474.268 51.5404 475.951 51.803 477.455 52.3281C478.959 52.8533 480.248 53.6888 481.322 54.8346C482.42 55.9805 483.256 57.4844 483.829 59.3464C484.426 61.1845 484.724 63.4523 484.724 66.1497V91H475.199V66.0781C475.199 64.3116 474.937 62.9151 474.411 61.8887C473.91 60.8622 473.17 60.1341 472.191 59.7044C471.237 59.2747 470.055 59.0599 468.646 59.0599C467.19 59.0599 465.913 59.3583 464.815 59.9551C463.741 60.528 462.834 61.3277 462.094 62.3542C461.378 63.3806 460.829 64.5623 460.447 65.8991C460.065 67.2359 459.874 68.6801 459.874 70.2318Z" fill="white"/>
<circle cx="44.6666" cy="44" r="40.3333" stroke="white" stroke-width="7.33333"/>
<circle cx="88.6667" cy="44" r="40.3333" stroke="white" stroke-width="7.33333"/>
<circle cx="66.6667" cy="88" r="40.3333" stroke="white" stroke-width="7.33333"/>
</svg>
