<svg width="133" height="36" viewBox="0 0 133 36" fill="none" xmlns="http://www.w3.org/2000/svg">
<path d="M49.0176 10.7812L52.1426 17.4121L55.2871 10.7812H58.2363L53.5098 19.7949V25H50.7852V19.7949L46.0488 10.7812H49.0176ZM58.3633 19.8242V19.6191C58.3633 18.8444 58.474 18.1315 58.6953 17.4805C58.9167 16.8229 59.2389 16.2533 59.6621 15.7715C60.0853 15.2897 60.6029 14.9154 61.2148 14.6484C61.8268 14.375 62.5234 14.2383 63.3047 14.2383C64.099 14.2383 64.8021 14.375 65.4141 14.6484C66.0326 14.9154 66.5534 15.2897 66.9766 15.7715C67.3997 16.2533 67.722 16.8229 67.9434 17.4805C68.1647 18.1315 68.2754 18.8444 68.2754 19.6191V19.8242C68.2754 20.5924 68.1647 21.3053 67.9434 21.9629C67.722 22.6139 67.3997 23.1836 66.9766 23.6719C66.5534 24.1536 66.0358 24.528 65.4238 24.7949C64.8118 25.0618 64.112 25.1953 63.3242 25.1953C62.543 25.1953 61.8431 25.0618 61.2246 24.7949C60.6061 24.528 60.0853 24.1536 59.6621 23.6719C59.2389 23.1836 58.9167 22.6139 58.6953 21.9629C58.474 21.3053 58.3633 20.5924 58.3633 19.8242ZM60.9414 19.6191V19.8242C60.9414 20.2865 60.987 20.7194 61.0781 21.123C61.1693 21.5267 61.3092 21.8815 61.498 22.1875C61.6868 22.4935 61.931 22.7344 62.2305 22.9102C62.5365 23.0794 62.901 23.1641 63.3242 23.1641C63.7409 23.1641 64.099 23.0794 64.3984 22.9102C64.6979 22.7344 64.9421 22.4935 65.1309 22.1875C65.3262 21.8815 65.4694 21.5267 65.5605 21.123C65.6517 20.7194 65.6973 20.2865 65.6973 19.8242V19.6191C65.6973 19.1634 65.6517 18.737 65.5605 18.3398C65.4694 17.9362 65.3262 17.5814 65.1309 17.2754C64.9421 16.9629 64.6947 16.7188 64.3887 16.543C64.0892 16.3607 63.7279 16.2695 63.3047 16.2695C62.888 16.2695 62.5299 16.3607 62.2305 16.543C61.931 16.7188 61.6868 16.9629 61.498 17.2754C61.3092 17.5814 61.1693 17.9362 61.0781 18.3398C60.987 18.737 60.9414 19.1634 60.9414 19.6191ZM76.4395 22.4902V14.4336H79.0371V25H76.5957L76.4395 22.4902ZM76.7715 20.3027L77.5723 20.2832C77.5723 20.9928 77.4941 21.6471 77.3379 22.2461C77.1816 22.8451 76.9375 23.3659 76.6055 23.8086C76.2799 24.2448 75.8665 24.5866 75.3652 24.834C74.8639 25.0749 74.2715 25.1953 73.5879 25.1953C73.0671 25.1953 72.5918 25.1237 72.1621 24.9805C71.7324 24.8307 71.3613 24.5996 71.0488 24.2871C70.7428 23.9681 70.5052 23.5612 70.3359 23.0664C70.1667 22.5651 70.082 21.9629 70.082 21.2598V14.4336H72.6602V21.2793C72.6602 21.6309 72.6992 21.9238 72.7773 22.1582C72.862 22.3926 72.9759 22.5846 73.1191 22.7344C73.2689 22.8776 73.4414 22.9818 73.6367 23.0469C73.8385 23.1055 74.0534 23.1348 74.2812 23.1348C74.9062 23.1348 75.3978 23.0111 75.7559 22.7637C76.1204 22.5098 76.3809 22.1712 76.5371 21.748C76.6934 21.3184 76.7715 20.8366 76.7715 20.3027ZM83.9004 16.5918V25H81.3223V14.4336H83.7637L83.9004 16.5918ZM87.1133 14.3652L87.0742 16.7676C86.931 16.7415 86.7682 16.722 86.5859 16.709C86.4102 16.696 86.2441 16.6895 86.0879 16.6895C85.6908 16.6895 85.3424 16.7448 85.043 16.8555C84.7435 16.9596 84.4928 17.1126 84.291 17.3145C84.0957 17.5163 83.946 17.7637 83.8418 18.0566C83.7376 18.3431 83.679 18.6686 83.666 19.0332L83.1094 18.9648C83.1094 18.2943 83.1777 17.6725 83.3145 17.0996C83.4512 16.5267 83.6497 16.0254 83.9102 15.5957C84.1706 15.166 84.4961 14.834 84.8867 14.5996C85.2839 14.3587 85.7396 14.2383 86.2539 14.2383C86.3971 14.2383 86.5501 14.2513 86.7129 14.2773C86.8822 14.2969 87.0156 14.3262 87.1133 14.3652ZM94.0176 22.7539V17.8809C94.0176 17.5228 93.9557 17.2135 93.832 16.9531C93.7083 16.6927 93.5195 16.4909 93.2656 16.3477C93.0117 16.2044 92.6895 16.1328 92.2988 16.1328C91.9538 16.1328 91.651 16.1914 91.3906 16.3086C91.1367 16.4258 90.9414 16.5918 90.8047 16.8066C90.668 17.015 90.5996 17.2559 90.5996 17.5293H88.0117C88.0117 17.0931 88.1159 16.6797 88.3242 16.2891C88.5326 15.8919 88.8288 15.5404 89.2129 15.2344C89.6035 14.9219 90.069 14.6777 90.6094 14.502C91.1562 14.3262 91.7682 14.2383 92.4453 14.2383C93.2461 14.2383 93.959 14.375 94.584 14.6484C95.2155 14.9154 95.7103 15.319 96.0684 15.8594C96.4329 16.3997 96.6152 17.0801 96.6152 17.9004V22.5098C96.6152 23.0371 96.6478 23.4896 96.7129 23.8672C96.7845 24.2383 96.8887 24.5605 97.0254 24.834V25H94.3984C94.2747 24.7331 94.1803 24.3945 94.1152 23.9844C94.0501 23.5677 94.0176 23.1576 94.0176 22.7539ZM94.3789 18.5645L94.3984 20.0977H92.7676C92.3639 20.0977 92.0091 20.14 91.7031 20.2246C91.3971 20.3027 91.1465 20.4199 90.9512 20.5762C90.7559 20.7259 90.6094 20.9082 90.5117 21.123C90.4141 21.3314 90.3652 21.569 90.3652 21.8359C90.3652 22.0964 90.4238 22.3307 90.541 22.5391C90.6647 22.7474 90.8405 22.9134 91.0684 23.0371C91.3027 23.1543 91.5762 23.2129 91.8887 23.2129C92.3444 23.2129 92.7415 23.1217 93.0801 22.9395C93.4186 22.7507 93.6823 22.5228 93.8711 22.2559C94.0599 21.9889 94.1608 21.735 94.1738 21.4941L94.916 22.6074C94.8249 22.8743 94.6882 23.1576 94.5059 23.457C94.3236 23.7565 94.0892 24.0365 93.8027 24.2969C93.5163 24.5573 93.1712 24.7721 92.7676 24.9414C92.3639 25.1107 91.8952 25.1953 91.3613 25.1953C90.6777 25.1953 90.0658 25.0586 89.5254 24.7852C88.985 24.5117 88.5586 24.1374 88.2461 23.6621C87.9336 23.1868 87.7773 22.6465 87.7773 22.041C87.7773 21.4811 87.8815 20.9863 88.0898 20.5566C88.2982 20.127 88.6074 19.7656 89.0176 19.4727C89.4277 19.1732 89.9355 18.9486 90.541 18.7988C91.153 18.6426 91.8529 18.5645 92.6406 18.5645H94.3789ZM103.939 14.4336V16.2891H97.8848V14.4336H103.939ZM99.5059 11.8359H102.094V21.9531C102.094 22.2656 102.136 22.5065 102.221 22.6758C102.305 22.8451 102.432 22.959 102.602 23.0176C102.771 23.0762 102.973 23.1055 103.207 23.1055C103.376 23.1055 103.533 23.0957 103.676 23.0762C103.819 23.0566 103.939 23.0371 104.037 23.0176L104.047 24.9512C103.832 25.0228 103.588 25.0814 103.314 25.127C103.048 25.1725 102.745 25.1953 102.406 25.1953C101.827 25.1953 101.319 25.0977 100.883 24.9023C100.447 24.7005 100.108 24.3783 99.8672 23.9355C99.6263 23.4863 99.5059 22.8939 99.5059 22.1582V11.8359ZM110.658 14.4336V16.2891H104.604V14.4336H110.658ZM106.225 11.8359H108.812V21.9531C108.812 22.2656 108.855 22.5065 108.939 22.6758C109.024 22.8451 109.151 22.959 109.32 23.0176C109.49 23.0762 109.691 23.1055 109.926 23.1055C110.095 23.1055 110.251 23.0957 110.395 23.0762C110.538 23.0566 110.658 23.0371 110.756 23.0176L110.766 24.9512C110.551 25.0228 110.307 25.0814 110.033 25.127C109.766 25.1725 109.464 25.1953 109.125 25.1953C108.546 25.1953 108.038 25.0977 107.602 24.9023C107.165 24.7005 106.827 24.3783 106.586 23.9355C106.345 23.4863 106.225 22.8939 106.225 22.1582V11.8359ZM118.197 22.7539V17.8809C118.197 17.5228 118.135 17.2135 118.012 16.9531C117.888 16.6927 117.699 16.4909 117.445 16.3477C117.191 16.2044 116.869 16.1328 116.479 16.1328C116.133 16.1328 115.831 16.1914 115.57 16.3086C115.316 16.4258 115.121 16.5918 114.984 16.8066C114.848 17.015 114.779 17.2559 114.779 17.5293H112.191C112.191 17.0931 112.296 16.6797 112.504 16.2891C112.712 15.8919 113.008 15.5404 113.393 15.2344C113.783 14.9219 114.249 14.6777 114.789 14.502C115.336 14.3262 115.948 14.2383 116.625 14.2383C117.426 14.2383 118.139 14.375 118.764 14.6484C119.395 14.9154 119.89 15.319 120.248 15.8594C120.613 16.3997 120.795 17.0801 120.795 17.9004V22.5098C120.795 23.0371 120.827 23.4896 120.893 23.8672C120.964 24.2383 121.068 24.5605 121.205 24.834V25H118.578C118.454 24.7331 118.36 24.3945 118.295 23.9844C118.23 23.5677 118.197 23.1576 118.197 22.7539ZM118.559 18.5645L118.578 20.0977H116.947C116.544 20.0977 116.189 20.14 115.883 20.2246C115.577 20.3027 115.326 20.4199 115.131 20.5762C114.936 20.7259 114.789 20.9082 114.691 21.123C114.594 21.3314 114.545 21.569 114.545 21.8359C114.545 22.0964 114.604 22.3307 114.721 22.5391C114.844 22.7474 115.02 22.9134 115.248 23.0371C115.482 23.1543 115.756 23.2129 116.068 23.2129C116.524 23.2129 116.921 23.1217 117.26 22.9395C117.598 22.7507 117.862 22.5228 118.051 22.2559C118.24 21.9889 118.34 21.735 118.354 21.4941L119.096 22.6074C119.005 22.8743 118.868 23.1576 118.686 23.457C118.503 23.7565 118.269 24.0365 117.982 24.2969C117.696 24.5573 117.351 24.7721 116.947 24.9414C116.544 25.1107 116.075 25.1953 115.541 25.1953C114.857 25.1953 114.245 25.0586 113.705 24.7852C113.165 24.5117 112.738 24.1374 112.426 23.6621C112.113 23.1868 111.957 22.6465 111.957 22.041C111.957 21.4811 112.061 20.9863 112.27 20.5566C112.478 20.127 112.787 19.7656 113.197 19.4727C113.607 19.1732 114.115 18.9486 114.721 18.7988C115.333 18.6426 116.033 18.5645 116.82 18.5645H118.559ZM125.648 16.6895V25H123.07V14.4336H125.492L125.648 16.6895ZM125.238 19.3359H124.477C124.483 18.5677 124.587 17.8711 124.789 17.2461C124.991 16.6211 125.274 16.084 125.639 15.6348C126.01 15.1855 126.449 14.8405 126.957 14.5996C127.465 14.3587 128.031 14.2383 128.656 14.2383C129.164 14.2383 129.623 14.3099 130.033 14.4531C130.443 14.5964 130.795 14.8242 131.088 15.1367C131.387 15.4492 131.615 15.8594 131.771 16.3672C131.934 16.8685 132.016 17.487 132.016 18.2227V25H129.418V18.2031C129.418 17.7214 129.346 17.3405 129.203 17.0605C129.066 16.7806 128.865 16.582 128.598 16.4648C128.337 16.3477 128.015 16.2891 127.631 16.2891C127.234 16.2891 126.885 16.3704 126.586 16.5332C126.293 16.6895 126.046 16.9076 125.844 17.1875C125.648 17.4674 125.499 17.7897 125.395 18.1543C125.29 18.5189 125.238 18.9128 125.238 19.3359Z" fill="white"/>
<circle cx="12" cy="12" r="11" stroke="white" stroke-width="2"/>
<circle cx="24" cy="12" r="11" stroke="white" stroke-width="2"/>
<circle cx="18" cy="24" r="11" stroke="white" stroke-width="2"/>
</svg>
