<svg width="6" height="10" viewBox="0 0 6 10" fill="none" xmlns="http://www.w3.org/2000/svg">
<path d="M1.25001 9.24996C1.1493 9.24657 1.05035 9.22265 0.95921 9.17966C0.868074 9.13667 0.786678 9.07552 0.720012 8.99996C0.579561 8.85934 0.500671 8.66871 0.500671 8.46996C0.500671 8.27121 0.579561 8.08059 0.720012 7.93996L3.72001 4.93996L0.720012 1.93996C0.660688 1.79595 0.64767 1.63704 0.682766 1.4853C0.717862 1.33355 0.799331 1.1965 0.915862 1.09316C1.03239 0.989817 1.17821 0.925321 1.33306 0.908621C1.48792 0.891921 1.64413 0.923846 1.78001 0.999964L5.28001 4.49996C5.42046 4.64059 5.49935 4.83121 5.49935 5.02996C5.49935 5.22871 5.42046 5.41934 5.28001 5.55996L1.78001 8.99996C1.71334 9.07552 1.63195 9.13667 1.54081 9.17966C1.44968 9.22265 1.35072 9.24657 1.25001 9.24996Z" fill="black" fill-opacity="0.75"/>
</svg>
